<svg id="eOVt6hBIbDx1" xmlns="http://www.w3.org/2000/svg" xmlns:xlink="http://www.w3.org/1999/xlink" viewBox="0 0 100 100.1" shape-rendering="geometricPrecision" text-rendering="geometricPrecision">
<style><![CDATA[
#eOVt6hBIbDx2_tr {animation: eOVt6hBIbDx2_tr__tr 3030.30303030303ms linear infinite normal forwards}@keyframes eOVt6hBIbDx2_tr__tr { 0% {transform: translate(49.117103px,49.700001px) rotate(0deg)} 100% {transform: translate(49.117103px,49.700001px) rotate(360deg)}} #eOVt6hBIbDx2_ts {animation: eOVt6hBIbDx2_ts__ts 3030.30303030303ms linear infinite normal forwards}@keyframes eOVt6hBIbDx2_ts__ts { 0% {transform: scale(1,1);animation-timing-function: cubic-bezier(0.42,0,0.58,1)} 50% {transform: scale(0.648776,0.648776);animation-timing-function: cubic-bezier(0.42,0,0.58,1)} 100% {transform: scale(1,1)}}
]]></style>
<g id="eOVt6hBIbDx2_tr" transform="translate(49.117103,49.700001) rotate(0)"><g id="eOVt6hBIbDx2_ts" transform="scale(1,1)"><path d="M0.8,40c0-.3.1-.9.2-1.2.4-3.2,1.5-6.1,3-8.9c3.4-6.3,8.5-10.5,15.5-12.3.4-.1.5-.3.7-.6c1.2-3.6,3.2-6.7,5.9-9.5c3.3-3.3,7-5.8,11.7-6.7c3.3-.6,6.8-.8,10.2,0C53.3,2,58,4.6,62.1,8c.1.1.4.2.6.2c2.3-.2,4.6-.2,6.9,0c6.2.7,11.6,3.1,16,7.6c3.8,3.8,6.1,8.4,6.8,13.8.5,3.6.3,7.1-.4,10.7c0,.2,0,.4.1.6c1.7,2.4,3,4.9,3.9,7.7c1,3.1,1.7,6.2,1.5,9.4-.2,5.8-2,11.1-5.4,15.8-1.6,2.2-3.6,4.1-5.9,5.6-2,1.2-4.3,1.9-6.6,2.6-.3.1-.6.3-.7.6-1.4,2.1-2.7,4.2-4,6.4-2.2,3.4-5,6-8.6,7.8-4.3,2.1-8.8,3-13.5,3.1-3,0-6-.4-8.8-1.5-3.2-1.2-5.4-3.7-7.2-6.4-.2-.3-.3-.3-.6-.3-1.6.2-3.2.3-4.8.4-5.3.2-10.2-1.2-14.6-4.2-2-1.4-3.9-2.9-5.5-4.8-2.4-3-3.8-6.4-4.7-10.1-1-4.3-1-8.6.8-12.8.1-.1,0-.4-.1-.5-.6-.7-1.3-1.4-1.9-2.2-2-2.5-3.2-5.5-4.1-8.6-.5-1.8-.6-3.5-.6-5.1m0-44.3c0,0,.1,0,.1,0M33.9,51.9c0-.3,0-.5,0-.7c0-8.8,0-17.7,0-26.5c0-.4.1-.7.5-.9c5.3-3.1,10.7-6.2,16-9.3c1.9-1.1,3.8-2.2,5.9-3.4-1-.6-1.9-1.2-2.9-1.7-3.7-2-7.5-3.3-11.8-2.9-2.2.1-4.4.5-6.4,1.5-3,1.5-5.3,3.8-7.2,6.4-1.4,1.8-2.1,3.9-2.8,6-.1.3-.2.6-.2.9c0,8.2,0,16.4,0,24.7c0,.4.1.6.4.7c2.7,1.6,5.4,3.2,8,4.9.1.1.3.2.5.3Zm8.4,37.3C43.6,90.9,45,92.4,47,93c1.1.3,2.3.6,3.5.7c4,.4,7.9-.1,11.6-1.6c2.4-.9,4.6-2.3,6.3-4.3c2.2-2.7,3.9-5.6,5.6-8.6.1-.2.1-.4.1-.6c0-8.3,0-16.6,0-24.9c0-.4-.1-.6-.4-.7-2.5-1.6-5-3.3-7.5-4.9-.1-.1-.3-.2-.5-.3c0,.3,0,.5,0,.7c0,1.6,0,3.3,0,4.9c0,4.6,0,9.1,0,13.7c0,2.5,0,5,0,7.5c0,.4-.1.6-.4.8C60,78.6,54.7,81.8,49.4,85c-2.3,1.3-4.7,2.7-7.1,4.2ZM19,24c-.3.1-.4.2-.6.2-3.9,1.6-6.9,4.3-9,8C8,34.8,7,37.5,6.8,40.5c-.1,2.1.2,4.1.5,6.2.3,1.8.7,3.6,1.7,5.2s2.1,3.2,3.7,4.2c7.3,4.6,14.6,9.2,21.8,13.8.3.2.5.2.8,0c2.1-1.2,4.2-2.4,6.3-3.6.7-.4,1.5-.8,2.3-1.3-.2-.1-.3-.2-.5-.3-7.9-4.8-15.9-9.6-23.8-14.4-.4-.3-.6-.6-.6-1c0-8.2,0-16.4,0-24.6c0-.2,0-.4,0-.7ZM59.8,62.8c-.2.1-.4.2-.5.3-8,4.6-16.1,9.1-24.1,13.7-.4.2-.7.2-1,0-5.2-3.3-10.5-6.6-15.8-9.9-1.9-1.2-3.8-2.4-5.8-3.6-.2.9-.4,1.7-.5,2.5-.3,2.1,0,4.2.6,6.3.9,3.3,2.2,6.5,5,8.8c2.4,2,4.9,3.6,7.8,4.5c3,.8,6,.9,9,.5c1.5-.2,2.9-.6,4.2-1.4c6.9-4.2,13.8-8.4,20.7-12.6.3-.2.5-.4.4-.8c0-2.6,0-5.1,0-7.7c0-.2,0-.4,0-.6ZM56.1,34c3.5,2.3,6.9,4.5,10.2,6.8c4.4,2.9,8.9,5.9,13.4,8.8.4.2.5.5.5.9c0,8.2,0,16.3,0,24.5c0,.2,0,.4,0,.6c1.5-.3,3.5-1.3,4.8-2.5c4.2-3.9,6.3-8.8,6.7-14.5.3-5.2-1.4-9.9-4.4-14.2-.3-.4-.7-.9-1.1-1.1C79,39,71.8,34.7,64.7,30.4c-.5-.3-1.1-.9-1.7-.9s-1.1.6-1.7,1c-1.7,1.1-3.4,2.3-5.2,3.5ZM39.9,37.3c.3-.2.4-.3.6-.4c7.4-4.5,14.6-9.5,21.7-14.4.3-.2.6-.3,1,0c7.6,4.6,15.3,9.1,22.9,13.7.2.1.3.2.5.3c0-.2.1-.2.1-.3.2-2.2.2-4.5-.3-6.7-1.4-6.6-5.3-11.2-11.5-13.8-3.6-1.5-7.3-1.8-11.2-1.5-.7.1-1.4.2-2,.5-7.2,4.1-14.3,8.3-21.5,12.5-.3.2-.5.4-.5.8c0,2.9,0,5.8,0,8.7.2.2.2.4.2.6Zm10.3.6c-3.2,2-6.5,4.1-9.7,6.1-.2.1-.3.3-.3.5-.1,3.6-.2,7.1-.3,10.7c0,.2.1.4.3.5c2.9,1.8,5.9,3.6,8.9,5.4.1.1.4.1.5,0c3.3-1.7,6.6-3.5,9.9-5.3.1-.1.3-.3.3-.5c0-3.8,0-7.7,0-11.5c0-.2-.1-.4-.3-.5-3-1.6-6.2-3.5-9.3-5.4Z" transform="translate(-49.117103,-49.700001)" fill="#fff"/></g></g></svg>
