<?xml version="1.0" encoding="utf-8"?>
<!-- Generator: Adobe Illustrator 24.1.1, SVG Export Plug-In . SVG Version: 6.00 Build 0)  -->
<svg version="1.1" id="Camada_1" xmlns="http://www.w3.org/2000/svg" xmlns:xlink="http://www.w3.org/1999/xlink" x="0px" y="0px"
	 viewBox="0 0 1805 738" style="enable-background:new 0 0 1805 738;" xml:space="preserve">
<style type="text/css">
	.st0{fill:#FFFFFF;}
</style>
<g>
	<g>
		<path class="st0" d="M640.4,307.1c-5.2,5-10.2,9.8-15.3,14.6c-9.6,8.9-19.2,17.7-28.8,26.7c-32.7,30.5-65.4,61-98.1,91.5
			c-22.4,20.9-44.8,41.7-67.2,62.5c-22,20.5-44,41-66.1,61.5c-2,1.8-3.4,1.8-5.3,0.1c-16.5-15-33-29.8-49.5-44.6
			c-22.5-20.2-45-40.4-67.4-60.5c-5.7-5.1-11.2-10.2-17-15.2c-2.6-2.3-2.1-3.2,1-4.2c27.7-8.8,55.3-17.8,82.9-26.7
			c31-10,62-20,93-30c77.9-25.1,155.9-50.2,233.9-75.3C637.7,307,638.8,306.2,640.4,307.1z"/>
	</g>
	<g>
		<path class="st0" d="M238.9,414c7.8-7.4,15-14.3,22.2-21.1c10.2-9.6,20.5-19,30.7-28.6c28.1-26.4,56.2-52.9,84.2-79.2
			c17-16,33.9-31.8,50.9-47.8c25.9-24.3,51.9-48.6,77.8-73c3.1-2.9,6.4-5.8,9.4-8.8c1.8-1.8,3.2-2.1,5.1-0.1
			c22.2,22.7,44.5,45.4,66.7,68c7.9,8.1,15.9,16,23.8,24c11,11.2,21.9,22.4,32.9,33.6c2.8,2.9,2.8,3-1.2,4.3
			c-48.1,15.5-96.1,30.9-144.2,46.4c-63.1,20.3-126.3,40.7-189.4,61c-20.8,6.7-41.6,13.3-62.4,20C243.8,413.3,242,414.2,238.9,414z"
			/>
	</g>
	<g>
		<path class="st0" d="M647.7,324.1c-3,7.7-6.1,15.6-9.1,23.3C602.9,439,567,530.6,531.1,622.1c-3.1,7.9-1.7,7.4-9.7,4.3
			c-44.6-17-89.2-34-133.9-51c-7.3-2.8-7.3-2.1-1.7-7.4c27.1-25.5,54.2-50.8,81.4-76.1c12.9-12,25.8-24.1,38.7-36.2
			c27.2-25.5,54.3-51,81.5-76.5c16.4-15.4,32.8-30.8,49.3-46.1c3.5-3.2,6.9-6.3,10.4-9.4C647.3,323.8,647.5,324,647.7,324.1z"/>
	</g>
	<g>
		<path class="st0" d="M214.1,409.4c3-6.9,6.1-13.8,9.1-20.6c31.1-69.9,62.1-139.8,93.2-209.7c8.5-19.3,17.2-38.4,25.6-57.8
			c1.5-3.3,2.9-4.4,6.8-3.8c49.1,7.8,98.2,15.4,147.3,23c0.6,0.1,1.3,0.1,1.9,0.3c0.9,0.3,2.3,0.1,2.5,1.4c0.2,1-0.9,1.5-1.5,2.1
			c-6.8,6.5-13.7,13-20.6,19.4c-14.1,13.2-28.3,26.4-42.5,39.6c-31.4,29.2-62.8,58.5-94.1,87.8c-17.9,16.7-35.7,33.4-53.5,50.2
			c-24,22.4-47.9,44.8-72,67.2c-0.5,0.5-1.2,0.8-1.8,1.3C214.4,409.7,214.2,409.6,214.1,409.4z"/>
	</g>
	<g>
		<path class="st0" d="M1168.7,332.6c11.6-10.5,24.3-17.2,39-19.7c15.8-2.7,31.1-1.4,44.6,8.2c11.2,7.9,16,19.7,18.4,32.6
			c1.1,5.5,1.7,11.1,1.7,16.7c0,25.6-0.1,51.2,0.1,76.9c0,3.8-1,5.3-5.1,5.2c-13.3-0.2-26.7-0.2-40,0c-3.8,0.1-5-1.1-4.9-4.9
			c0.2-20.3,0.1-40.5,0.1-60.8c0-5.4-0.2-10.7-1.6-16c-2.3-8.7-8.9-14.1-18-15.1c-4.4-0.5-8.6-0.5-12.9,0.4
			c-9.8,2.1-16.5,9.3-18,19.3c-0.5,3.5-0.8,7-0.8,10.5c0.1,20.6-0.1,41,0.1,61.6c0,3.8-1.2,4.9-4.9,4.9c-13.5-0.2-26.9-0.2-40.4,0
			c-3.7,0.1-4.7-1.3-4.7-4.8c0.1-42.7,0.1-85.5,0-128.3c0-3.8,1.2-4.9,5-4.9c12.6,0.2,25.2,0.2,37.7,0c3.7-0.1,4.9,1.3,4.8,4.8
			C1168.6,323.8,1168.7,328.2,1168.7,332.6z"/>
	</g>
	<g>
		<path class="st0" d="M1515.9,399.1c3.3-10.8,6.5-21.1,9.7-31.5c5-16.3,10-32.5,14.8-48.8c0.8-2.9,2.1-4.3,5.4-4.2
			c13.7,0.2,27.5,0.1,41.2,0.1c4.4,0,4.7,0.4,3.1,4.4c-19,48-38.1,96-57.2,143.9c-2.8,7.1-6.4,13.7-10.3,20.3
			c-10,17-25.1,25.4-44.6,26.3c-10.7,0.5-21.4,0.2-32.1-0.8c-2.1-0.2-3.5-0.7-3.2-3.3c1.2-9.8,2.5-19.7,3.5-29.5
			c0.3-3,1.8-3.8,4.4-3.3c6,0.9,12,0.7,18,0.6c8.5,0,14.7-4,18.9-11.1c0.4-0.7,0.7-1.4,1.2-2.1c3.8-5.8,3.7-11.3,0.6-17.9
			c-18.6-40.4-36.7-80.9-54.9-121.4c-2.8-6.1-2.8-6.1,4.1-6.1c12.8,0,25.6,0.1,38.4-0.1c3.5-0.1,5.1,1.2,6.3,4.4
			c9.9,25.3,19.9,50.6,29.9,75.9C1514,396.2,1514.2,397.7,1515.9,399.1z"/>
	</g>
	<g>
		<path class="st0" d="M1027.6,455.8c-29.5-1.1-53.6-12.4-68.7-38.7c-18-31.5-8-70.8,22.7-91.6c30.5-20.7,72.9-18.1,100.7,6.1
			c35.7,31.2,30.3,87-10.8,112C1057.9,451.9,1043.3,455.8,1027.6,455.8z M996.8,383.7c0,17.4,13.3,30.7,30.8,30.8
			c17.7,0.1,31.5-13.3,31.6-30.6c0.2-17.1-13.8-30.8-31.5-30.8C1010.4,352.9,996.9,366.2,996.8,383.7z"/>
	</g>
	<g>
		<path class="st0" d="M1382.9,396c-14.8,0-29.5,0-44.3,0c-4.2,0-4.8,0.8-2.5,4.4c5.8,9.4,15,13.6,25.3,15.5
			c17.3,3.2,34.4,0.8,51.3-2.6c7.6-1.5,6.2-1.4,8.1,4.9c2.7,8.7,5.1,17.6,7.8,26.3c0.8,2.4,0.6,3.9-2.2,4.6
			c-25.2,6.1-50.8,9.1-76.6,4.7c-23.4-4.1-42.1-16-54.2-37c-14.8-25.5-10.2-59,10.5-81.4c28.2-30.5,78.3-29.5,105.2-5.9
			c12.8,11.2,19.4,25.6,21.4,42.3c0.8,6.5,0.4,13-0.2,19.6c-0.3,3.3-1.6,4.7-5.2,4.6C1412.4,395.9,1397.7,396,1382.9,396z
			 M1361.4,368.1c8.5,0,17,0,25.5,0c4,0,4.4-0.5,2.8-4.4c-1.2-3.2-3-6.1-5.4-8.6c-8.7-9.1-19.5-10.6-31.1-8.2
			c-9.3,1.9-16.4,7.2-20.1,16.3c-1.7,4.1-1.2,4.8,3.1,4.8C1344.7,368.1,1353.1,368.1,1361.4,368.1z"/>
	</g>
	<g>
		<path class="st0" d="M900.4,380.1c0,6.5-0.1,13,0,19.6c0.2,9.1,4.4,13.3,13.5,13c5.9-0.2,11.7-1.1,17.4-2.7
			c2.9-0.8,4.2-0.5,4.8,2.8c2,11.2,4.3,22.3,6.5,33.4c0.4,1.9,0.5,3.6-2,4.3c-19.2,5.3-38.7,7.6-58.1,2.1c-20-5.6-31.7-21.5-32-42.5
			c-0.2-16.6-0.2-33.2,0-49.8c0-3.7-1.2-4.8-4.8-4.6c-3.4,0.2-6.8,0-10.2,0.1c-2.4,0.1-3.3-1-3.3-3.3c0.1-11.7,0.1-23.6,0-35.3
			c0-2.4,1.2-3.3,3.4-3.2c3.9,0.2,7.8,0.2,11.7,0.5c3.1,0.2,4.4-0.8,4.6-4.1c0.4-10.8,1.2-21.6,1.5-32.5c0.1-3.2,1.2-4.3,4.4-4.3
			c12.7,0.2,25.4,0.2,38.1,0c3.6-0.1,4.4,1.4,4.4,4.7c-0.2,10.4,0.2,20.9-0.2,31.4c-0.2,4.1,1.4,5.1,5.2,4.9
			c9.8-0.4,19.6-0.3,29.4-0.7c3.6-0.2,4.8,1.2,4.8,4.8c-0.2,10.8-0.2,21.7,0,32.5c0.1,3.7-1.3,4.7-4.8,4.7c-10-0.2-20.2,0-30.2-0.2
			c-3.2-0.1-4.4,1-4.3,4.3C900.5,366.8,900.4,373.4,900.4,380.1z"/>
	</g>
	<g>
		<path class="st0" d="M768.3,455.7c-20.5,0.2-38.5-4.5-56.2-11c-2.8-1.1-3.1-2.5-2-5.1c4.1-9.1,8.1-18.2,12-27.3
			c1.2-2.8,2.7-2.9,5.2-1.9c11.4,4.4,23.1,7.7,35.2,9.2c4.4,0.5,8.9,0.5,13.3,0.3c1.7-0.1,3.4-0.7,4.8-1.5c4.4-2.5,4.8-7.1,0.9-10.3
			c-3.2-2.6-7.1-3.8-11-4.9c-8.5-2.5-17.2-4.6-25.5-7.8c-9.4-3.6-18.3-8.1-24.5-16.3c-12.3-16.2-11.7-42.2,10.4-56.5
			c9.2-6,19.4-9.3,30.2-10c18.7-1.2,37.1,1.1,54.9,7.3c3.5,1.2,4.4,2.7,3.1,6.3c-2.9,8-5.6,16-8.2,24.2c-0.9,2.9-2.1,3.9-5.4,2.8
			c-12.1-3.8-24.5-6.3-37.3-7.2c-3.2-0.2-6.3,0.2-9.3,1.1c-2.5,0.7-4.2,2.3-4.5,4.9c-0.3,2.7,1.6,4,3.7,5c6.2,3.1,13.1,4.5,19.7,6.5
			c9.5,2.8,19,5.9,27.6,11c18.9,11.1,26.8,32,19,51.1c-5.8,14.3-17.5,22.1-31.5,26.7C784.6,455,775.8,456.1,768.3,455.7z"/>
	</g>
</g>
</svg>
