<svg xmlns="http://www.w3.org/2000/svg" id="eV2RrMDGeWN1" shape-rendering="geometricPrecision" text-rendering="geometricPrecision" viewBox="0 0 816 312"><style>@keyframes eV2RrMDGeWN2_tr__tr{0%{transform:translate(641.600001px,156.900001px) rotate(38.884457deg)}13.333333%{transform:translate(641.600001px,156.900001px) rotate(38.884457deg);animation-timing-function:cubic-bezier(.42,0,.58,1)}36.666667%,to{transform:translate(641.600001px,156.900001px) rotate(0deg)}}@keyframes eV2RrMDGeWN2_ts__ts{0%{transform:scale(.082669,.082669)}13.333333%{transform:scale(.082669,.082669);animation-timing-function:cubic-bezier(.42,0,.58,1)}36.666667%,to{transform:scale(1,1)}}@keyframes eV2RrMDGeWN2_c_o{0%,16.666667%{opacity:0}30%,to{opacity:1}}@keyframes eV2RrMDGeWN5_tr__tr{0%{transform:translate(661.349915px,156.050003px) rotate(180deg);animation-timing-function:cubic-bezier(.42,0,.58,1)}26.666667%,to{transform:translate(661.349915px,156.050003px) rotate(0deg)}}@keyframes eV2RrMDGeWN5_ts__ts{0%{transform:scale(.131886,.131881);animation-timing-function:cubic-bezier(.42,0,.58,1)}26.666667%,to{transform:scale(1,1)}}@keyframes eV2RrMDGeWN5_c_o{0%{opacity:0}3.333333%{opacity:0;animation-timing-function:cubic-bezier(.42,0,.58,1)}16.666667%,to{opacity:1}}</style><g style="animation:eV2RrMDGeWN2_tr__tr 3000ms linear 1 normal forwards" transform="rotate(38.884 98.552 987.272)"><g style="animation:eV2RrMDGeWN2_ts__ts 3000ms linear 1 normal forwards" transform="scale(.08267)"><g opacity="0" style="animation:eV2RrMDGeWN2_c_o 3000ms linear 1 normal forwards" transform="translate(-641.6 -156.9)"><path fill="#fff" d="M597.7 200.8H48.8c-24.2 0-43.9-19.6-43.9-43.9 0-24.2 19.6-43.9 43.9-43.9h548.9c24.2 0 43.9 19.6 43.9 43.9 0 24.2-19.7 43.9-43.9 43.9Z"/><path fill="#00b219" d="M56.2 178.1c-8.8-.1-17.2-7-17.3-18.2-.1-14.6 12.3-24.6 24.8-24.6 8.1 0 14.6 4.2 17.2 11.9l-10.3 5.5c-1-3.7-3.6-6.8-8.4-6.8-5.8 0-12.3 5.4-12.3 12.7 0 5.4 3.5 9 8.9 9 5.8 0 9.5-4.2 11-6.7l8.5 5.7c-5.5 7.5-12.3 11.6-22.1 11.5Zm31.2-42.2h10.9l-2.5 15.8H108l2.6-15.8h10.8l-6.6 41.6H104l2.5-15.8H94.2l-2.5 15.8H80.9l6.5-41.6Zm49.2 0H150l5.8 41.6h-11.5l-.7-7.1h-11.8l-2.9 7.1h-11.5l19.2-41.6Zm6.4 24.4-1.5-12.8-5.6 12.8h7.1Zm22.2-24.4h13.9l5.8 22.9 13.1-22.9h13.9l-6.6 41.6h-10.9l4.4-26.7-11.3 21.1h-9.2l-4.6-21.1-4.1 26.7h-10.9l6.5-41.6Zm61.7 0h13.4l5.8 41.6h-11.5l-.7-7.1h-11.8l-2.9 7.1h-11.5l19.2-41.6Zm6.4 24.4-1.5-12.8-5.6 12.8h7.1Zm40.3-24.4h9.5l14.5 22.8 3.6-22.8H312l-6.6 41.6H296l-14.6-22.3-3.5 22.3H267l6.6-41.6Zm82 17.6c0 14.5-12 24.6-24.9 24.6-9.6 0-18.1-7-18.1-18.2 0-14.5 12-24.6 24.9-24.6 9.6 0 18.1 7 18.1 18.2Zm-10.9 1.4c0-5.2-3.3-9-8.9-9-6.1 0-12.4 5.4-12.4 12.7 0 5.1 3.3 9 8.9 9 6.2-.1 12.4-5.5 12.4-12.7Zm36.3-19h29.3l-1.5 9.2-20 21.8H406l-1.7 10.6h-30.8l1.5-9.2 20-21.8h-15.6l1.6-10.6Zm44.2 0h13.4l5.8 41.6H433l-.7-7.1h-11.8l-2.9 7.1h-11.5l19.1-41.6Zm6.3 24.4-1.5-12.8-5.6 12.8h7.1Zm22.2-24.4h15.7c7.3 0 13 4.6 13 12.9 0 8.8-7.8 15.5-15.9 15.5h-6.4l-2.1 13.3h-10.9l6.6-41.7Zm11.6 18.5c3.6 0 6.1-2 6.1-5 0-2.1-1.5-3.7-4.8-3.7H463l-1.4 8.7h3.7Zm17.1 17.8c0-3.4 2.6-6 5.9-6s6 2.6 6 6c0 3.3-2.7 5.9-6 5.9s-5.9-2.6-5.9-5.9Zm6-36.3-3.5 27.4h9.2l5.2-27.4h-10.9Z"/></g></g></g><g style="animation:eV2RrMDGeWN5_tr__tr 3000ms linear 1 normal forwards" transform="rotate(180 330.675 78.025)"><g style="animation:eV2RrMDGeWN5_ts__ts 3000ms linear 1 normal forwards" transform="scale(.13189 .13188)"><g opacity="0" style="animation:eV2RrMDGeWN5_c_o 3000ms linear 1 normal forwards" transform="translate(-661.35 -156.05)"><path fill="#00b219" d="M661.4 6.3c82.6 0 149.7 67 149.7 149.7s-67.2 149.9-150 149.8c-82.6-.1-149.6-67.3-149.5-149.9 0-82.6 67.2-149.7 149.8-149.6Zm-96.7 245.3c1.5-.4 2.2-.6 3-.9 15.7-4.9 31.4-9.8 47-14.8 2.1-.7 3.8-.4 5.6.5 20.7 10.1 42.4 12.7 64.9 7.7 51-11.3 83.2-63.9 69.8-114.3-10.2-38.6-43.6-66.4-83.5-69.1-31.2-2.2-57.8 7.9-79 31-27.1 29.6-31.7 72-12 107.6 1 1.8 1.2 3.3.5 5.3-2.6 7.1-5 14.3-7.5 21.4-2.8 8.3-5.7 16.6-8.8 25.6Z"/><path fill="#fff" d="M564.7 251.6c3.1-9 6-17.3 8.9-25.6 2.5-7.1 4.9-14.3 7.5-21.4.7-2 .5-3.5-.5-5.3-19.7-35.6-15.2-78 12-107.6 21.2-23.1 47.8-33.1 79-31 39.9 2.8 73.3 30.5 83.5 69.1 13.3 50.4-18.9 103-69.8 114.3-22.6 5-44.2 2.4-64.9-7.7-1.9-.9-3.5-1.2-5.6-.5-15.7 5-31.3 9.9-47 14.8-.9.3-1.7.5-3.1.9Zm24.5-23c9.8-3 19-5.8 28.1-8.7 2-.6 3.4-.5 5.3.6 24.5 13.9 49.8 15.4 75.5 3.7 33.9-15.4 52.4-52.8 43.8-87.8-11.9-48.5-63.2-74.7-109.5-55.9-45.6 18.5-63.3 74.2-36.2 114.8 2 3 2.7 5.5 1.1 8.7-.2.4-.3.7-.4 1.1-2.6 7.7-5.1 15.3-7.7 23.5Z"/><path fill="#00b219" d="M589.2 228.6c2.7-8.2 5.2-15.9 7.7-23.5.1-.4.2-.8.4-1.1 1.7-3.2.9-5.7-1.1-8.7-27.1-40.5-9.4-96.2 36.2-114.8 46.4-18.8 97.6 7.4 109.5 55.9 8.5 34.9-9.9 72.3-43.8 87.8-25.6 11.7-51 10.2-75.5-3.7-1.8-1-3.3-1.2-5.3-.6-9.2 3-18.3 5.7-28.1 8.7Zm23.9-94.8c.2 1.9.3 3.8.7 5.6 1.8 9.9 7.1 18.1 13.2 25.8 13.5 17.1 30.3 29.3 51.3 35.3 12.7 3.7 29.4-.6 32-18.6.4-2.7 0-4.5-2.8-5.7-6.3-2.7-12.5-5.6-18.8-8.5-2.4-1.1-4.1-.7-5.7 1.4-2.3 3.1-4.7 6-6.9 9-1.1 1.4-2.3 2-4.1 1.3-14.5-5.7-26-14.9-33.7-28.6-.9-1.6-.8-2.9.4-4.3 2.3-2.5 4.4-5.1 6.7-7.6 1.4-1.5 1.5-3.1.7-4.9l-8.4-19.5c-.4-.9-1.1-2.1-1.8-2.2-4.4-.8-9-2.2-12.9 1.1-6.2 5.2-10.1 11.8-9.9 20.4Z"/><path fill="#fff" d="M613.1 133.8c-.2-8.6 3.7-15.2 10-20.5 3.9-3.3 8.5-1.8 12.9-1.1.7.1 1.4 1.3 1.8 2.2l8.4 19.5c.8 1.9.6 3.4-.7 4.9-2.3 2.5-4.4 5.1-6.7 7.6-1.3 1.4-1.4 2.7-.4 4.3 7.7 13.7 19.2 22.9 33.7 28.6 1.8.7 3 .2 4.1-1.3 2.3-3 4.7-6 6.9-9 1.6-2.1 3.3-2.5 5.7-1.4 6.2 2.9 12.5 5.8 18.8 8.5 2.8 1.2 3.2 3 2.8 5.7-2.7 17.9-19.3 22.2-32 18.6-21.1-6.1-37.8-18.3-51.3-35.4-6.1-7.7-11.4-15.9-13.2-25.8-.4-1.6-.6-3.5-.8-5.4Z"/></g></g></g></svg>